<svg width="46" height="12" viewBox="0 0 46 12" fill="none" xmlns="http://www.w3.org/2000/svg">
<path fill-rule="evenodd" clip-rule="evenodd" d="M31.5 6C31.5 4.61929 32.6193 3.5 34 3.5H46C47.3807 3.5 48.5 4.61929 48.5 6C48.5 7.38071 47.3807 8.5 46 8.5H34C32.6193 8.5 31.5 7.38071 31.5 6Z" fill="#1F6C94" fill-opacity="0.9"/>
<path d="M23 0L29 6L23 12L17 6L23 0Z" fill="#1F6C94"/>
<path fill-rule="evenodd" clip-rule="evenodd" d="M-2.5 6C-2.5 4.61929 -1.38071 3.5 0 3.5H12C13.3807 3.5 14.5 4.61929 14.5 6C14.5 7.38071 13.3807 8.5 12 8.5H0C-1.38071 8.5 -2.5 7.38071 -2.5 6Z" fill="#1F6C94" fill-opacity="0.9"/>
</svg>
