<svg width="44" height="44" viewBox="0 0 44 44" fill="none" xmlns="http://www.w3.org/2000/svg">
<path fill-rule="evenodd" clip-rule="evenodd" d="M14.6667 6.25C12.4344 6.25 10.2936 7.13675 8.71518 8.71518C7.13675 10.2936 6.25 12.4344 6.25 14.6667V29.3333C6.25 31.5656 7.13675 33.7064 8.71518 35.2848C10.2936 36.8632 12.4344 37.75 14.6667 37.75H29.3333C31.5656 37.75 33.7064 36.8632 35.2848 35.2848C36.8632 33.7064 37.75 31.5656 37.75 29.3333V14.6667C37.75 12.4344 36.8632 10.2936 35.2848 8.71518C33.7064 7.13675 31.5656 6.25 29.3333 6.25H14.6667ZM7.65452 7.65452C9.51426 5.79479 12.0366 4.75 14.6667 4.75H29.3333C31.9634 4.75 34.4857 5.79479 36.3455 7.65452C38.2052 9.51426 39.25 12.0366 39.25 14.6667V29.3333C39.25 31.9634 38.2052 34.4857 36.3455 36.3455C34.4857 38.2052 31.9634 39.25 29.3333 39.25H14.6667C12.0366 39.25 9.51426 38.2052 7.65452 36.3455C5.79479 34.4857 4.75 31.9634 4.75 29.3333V14.6667C4.75 12.0366 5.79479 9.51426 7.65452 7.65452Z" fill="#5C686D"/>
<path fill-rule="evenodd" clip-rule="evenodd" d="M22.0201 17.2882C21.1544 18.4063 20.9167 20.012 20.9167 22V23.0833H27.5C27.9142 23.0833 28.25 23.4191 28.25 23.8333C28.25 24.2475 27.9142 24.5833 27.5 24.5833H20.9167V38.5C20.9167 38.9142 20.5809 39.25 20.1667 39.25C19.7525 39.25 19.4167 38.9142 19.4167 38.5V24.5833H16.5C16.0858 24.5833 15.75 24.2475 15.75 23.8333C15.75 23.4191 16.0858 23.0833 16.5 23.0833H19.4167V22C19.4167 19.9767 19.6373 17.9157 20.8341 16.3699C22.0653 14.7797 24.1743 13.9167 27.5 13.9167C27.9142 13.9167 28.25 14.2524 28.25 14.6667C28.25 15.0809 27.9142 15.4167 27.5 15.4167C24.409 15.4167 22.8514 16.2146 22.0201 17.2882Z" fill="#5C686D"/>
</svg>
