<svg width="44.000000" height="44.000000" viewBox="0 0 44 44" fill="none" xmlns="http://www.w3.org/2000/svg" xmlns:xlink="http://www.w3.org/1999/xlink">
	<desc>
			Created with Pixso.
	</desc>
	<defs>
		<clipPath id="clip84_92">
			<rect id="material-symbols:location-on-outline" width="44.000000" height="44.000000" fill="white" fill-opacity="0"/>
		</clipPath>
	</defs>
	<rect id="material-symbols:location-on-outline" width="44.000000" height="44.000000" fill="#FFFFFF" fill-opacity="0"/>
	<g clip-path="url(#clip84_92)">
		<path id="Vector" d="M22 22C23 22 23.87 21.64 24.59 20.92C25.3 20.2 25.66 19.34 25.66 18.33C25.66 17.32 25.3 16.46 24.58 15.74C23.86 15.02 23 14.66 22 14.66C20.99 14.66 20.12 15.02 19.4 15.74C18.69 16.46 18.33 17.32 18.33 18.33C18.33 19.34 18.69 20.2 19.41 20.92C20.12 21.64 20.99 22 22 22ZM22 35.47C25.72 32.05 28.49 28.94 30.29 26.14C32.09 23.35 33 20.86 33 18.7C33 15.36 31.93 12.64 29.81 10.51C27.68 8.39 25.08 7.33 22 7.33C18.91 7.33 16.3 8.39 14.18 10.51C12.06 12.64 10.99 15.37 11 18.7C11 20.86 11.9 23.35 13.7 26.14C15.5 28.94 18.27 32.05 22 35.47ZM22 40.33C17.08 36.14 13.4 32.25 10.97 28.66C8.54 25.08 7.33 21.75 7.33 18.7C7.33 14.11 8.8 10.46 11.75 7.74C14.7 5.02 18.12 3.66 22 3.66C25.88 3.66 29.29 5.02 32.24 7.74C35.19 10.46 36.66 14.11 36.66 18.7C36.66 21.75 35.45 25.07 33.02 28.66C30.59 32.26 26.91 36.14 22 40.33Z" fill="#5C686D" fill-opacity="1.000000" fill-rule="nonzero"/>
	</g>
</svg>
